<?xml version="1.0" encoding="UTF-8"?>
<svg id="svg1" xmlns="http://www.w3.org/2000/svg" viewBox="0 0 283.46 283.46">
  <defs>
    <style>
      .cls-1, .cls-2, .cls-3, .cls-4, .cls-5, .cls-6, .cls-7, .cls-8, .cls-9, .cls-10, .cls-11, .cls-12, .cls-13, .cls-14, .cls-15, .cls-16 {
        stroke-miterlimit: 11.34;
      }

      .cls-1, .cls-2, .cls-3, .cls-4, .cls-5, .cls-6, .cls-7, .cls-8, .cls-12 {
        stroke-width: 1.13px;
      }

      .cls-1, .cls-5, .cls-6, .cls-13 {
        fill: #efbb92;
      }

      .cls-1, .cls-13 {
        stroke: #492002;
      }

      .cls-2 {
        fill: #4b200b;
      }

      .cls-2, .cls-4, .cls-7, .cls-8, .cls-9, .cls-17, .cls-10, .cls-11, .cls-12, .cls-14, .cls-15, .cls-16 {
        stroke: #000;
      }

      .cls-3 {
        fill: #730002;
        stroke: #310000;
      }

      .cls-4, .cls-9, .cls-10, .cls-11, .cls-14 {
        fill: #fff;
      }

      .cls-5 {
        stroke: #371300;
      }

      .cls-6 {
        stroke: #371100;
      }

      .cls-7 {
        fill: #ababab;
      }

      .cls-9 {
        stroke-width: 1.04px;
      }

      .cls-17 {
        fill: #c28a5e;
        stroke-miterlimit: 3;
        stroke-width: .19px;
      }

      .cls-10 {
        stroke-width: .97px;
      }

      .cls-11 {
        stroke-width: 1.33px;
      }

      .cls-12 {
        fill: none;
      }

      .cls-13 {
        stroke-width: 1.07px;
      }

      .cls-14, .cls-15 {
        stroke-width: 1.42px;
      }

      .cls-15 {
        fill: #aeadad;
      }

      .cls-16 {
        stroke-width: 3.4px;
      }
    </style>
  </defs>
  <g id="layer3">
    <path id="path71" class="cls-15" d="M113.67,81.78s-31.23-15.53-31.76-9.53c-.53,6,9.35,8.12,9.35,8.12,0,0-18.17,2.82-16.05,7.23s13.76-1.06,13.76-1.06c0,0-23.64,9-18.17,13.06,5.47,4.06,15.7-2.29,15.7-2.29,0,0-15.88,7.59-13.58,13.06,2.29,5.47,4.59,7.06,6.7,8.29,2.12,1.23,7.23-5.47,7.23-5.47,0,0-4.59,12-1.23,12.35,3.35,.35,8.29-3.7,8.29-3.7"/>
    <path id="path71-1" class="cls-15" d="M169.79,81.62s31.23-15.53,31.76-9.53c.53,6-9.35,8.12-9.35,8.12,0,0,18.17,2.82,16.05,7.23-2.12,4.41-13.76-1.06-13.76-1.06,0,0,23.64,9,18.17,13.06-5.47,4.06-15.7-2.29-15.7-2.29,0,0,15.88,7.59,13.58,13.06-2.29,5.47-4.59,7.06-6.7,8.29-2.12,1.23-7.23-5.47-7.23-5.47,0,0,4.59,12,1.23,12.35-3.35,.35-8.29-3.7-8.29-3.7"/>
    <path id="path69" class="cls-14" d="M89.86,160.46l-10.06,8.12,7.76,10.41,.71-4.59-4.59-5.82,6.35-4.76-.18-3.35Z"/>
    <path id="path69-2" class="cls-14" d="M194.24,159.14l10.06,8.12-7.76,10.41-.71-4.59,4.59-5.82-6.35-4.76,.18-3.35Z"/>
    <path id="path66" class="cls-8" d="M105.73,183.57c11.23,3.88,22.46,7.76,34.78,7.76,12.32,0,25.73-3.88,39.14-7.76"/>
    <path id="path65" class="cls-5" d="M96.34,107.42c-.21-.81-.63-1.56-1.21-2.16-.58-.6-1.31-1.05-2.11-1.28-.8-.24-1.66-.26-2.47-.08-.81,.19-1.57,.59-2.19,1.15-.98,.89-1.57,2.2-1.58,3.52-.02,1.32,.53,2.65,1.49,3.57s2.3,1.42,3.62,1.36,2.61-.7,3.46-1.71"/>
    <path id="path65-7" class="cls-5" d="M186.55,105.25c.21-.81,.63-1.56,1.21-2.16,.58-.6,1.31-1.05,2.11-1.28,.8-.24,1.66-.26,2.47-.08,.81,.19,1.57,.59,2.19,1.15,.98,.89,1.57,2.2,1.58,3.52,.02,1.32-.53,2.65-1.49,3.57s-2.3,1.42-3.62,1.36-2.61-.7-3.46-1.71"/>
    <path id="path47" class="cls-6" d="M96.78,96.01s41.85-49.09,89.76-1.19"/>
    <path id="path48" class="cls-13" d="M96.95,95.71l-9.61,87.16,109.45,.11-10.48-88.39"/>
    <path id="path52" class="cls-7" d="M130.52,136.24c-1.43-.24-2.93-.06-4.26,.51-1.33,.57-2.49,1.53-3.3,2.74s-1.27,2.64-1.3,4.09c-.03,1.45,.36,2.9,1.12,4.14,.71,1.15,1.72,2.1,2.89,2.77,1.17,.67,2.49,1.06,3.84,1.17,2.69,.22,5.4-.67,7.62-2.19,.53-.37,1.04-.77,1.59-1.11,.55-.35,1.14-.64,1.78-.76,1.11-.21,2.26,.12,3.27,.65,1,.52,1.9,1.23,2.85,1.85,.59,.38,1.21,.73,1.87,1,2.33,.94,5.09,.75,7.27-.51s3.73-3.55,4.08-6.04c.35-2.49-.5-5.12-2.25-6.93-1.75-1.81-4.35-2.75-6.85-2.49"/>
    <path id="path49" class="cls-1" d="M135.14,121.02c-2.89,1.5-5.05,4.33-5.74,7.51-.69,3.18,.11,6.65,2.12,9.21,2.07,2.64,5.38,4.25,8.73,4.25s6.67-1.61,8.74-4.24c2.07-2.63,2.86-6.23,2.06-9.49-.79-3.26-3.14-6.1-6.19-7.49"/>
    <ellipse id="path50" class="cls-4" cx="126.22" cy="110.92" rx="13.91" ry="13.85"/>
    <ellipse id="path50-0" class="cls-4" cx="154.12" cy="110.83" rx="13.91" ry="13.85"/>
    <path id="path51" class="cls-9" d="M112.07,107.6l-16.49-3.97"/>
    <path id="path51-8" class="cls-11" d="M167.85,107.59l20.02-5.39"/>
    <ellipse id="path58" class="cls-2" cx="126.09" cy="107.36" rx="2.31" ry="4.68"/>
    <ellipse id="path58-6" class="cls-2" cx="154.4" cy="107.03" rx="2.31" ry="4.68"/>
    <path id="path55" class="cls-12" d="M112.93,107.92s15.59-10.35,26.7,.62"/>
    <path id="path55-4" class="cls-12" d="M167.66,107.61s-15.59-10.35-26.7,.62"/>
    <path id="path56" class="cls-17" d="M138.38,106.6c-1.86-1.52-4.43-2.72-7.06-3.31-1.16-.26-1.61-.29-4.17-.29-2.65,0-2.99,.03-4.49,.35-2.25,.48-5.05,1.44-7.16,2.46-.99,.48-1.81,.87-1.83,.87s.11-.35,.28-.78c1.15-2.84,3.87-5.68,6.67-6.94,3.18-1.44,6.58-1.63,9.79-.56,3,1,5.7,3.19,7.29,5.92,.48,.82,1.19,2.46,1.11,2.55-.03,.03-.22-.09-.42-.26h0Z"/>
    <path id="path57" class="cls-17" d="M141.44,106.89s.11-.33,.25-.7c1.16-3.06,3.6-5.74,6.55-7.19,6.59-3.24,14.48-.57,17.78,6.01,.28,.55,.5,1.03,.5,1.07s-.63-.23-1.4-.59c-7.34-3.46-14.36-3.85-19.83-1.11-1.31,.66-2.23,1.24-3.15,1.98-.38,.31-.69,.54-.69,.53Z"/>
    <path id="path59" class="cls-10" d="M90.68,157.59l103.27-.09,3.9,26.13-110.58-.18,3.4-25.85Z"/>
    <path id="path60" class="cls-12" d="M111.63,157.74l29.07,11.85,27.82-12.1"/>
    <path id="path62" class="cls-3" d="M139.21,161.17l-2.43,3.4,3.75,4.28,3.57-4.28-2.21-3.48"/>
    <path id="path61" class="cls-3" d="M136.43,158.04l4.01,3.97,4.15-4.01"/>
    <path id="path63" class="cls-12" d="M111.44,160.44l6.24,8.98,6.61-2.99,2,6.49,12.23-2.87"/>
    <path id="path63-9" class="cls-12" d="M169.75,160.84l-6.24,8.98-6.61-2.99-2,6.49-12.23-2.87"/>
    <path id="path64" class="cls-7" d="M113.93,90.64c2.25-.94,6.36-2.68,10.06-3.01s6.99,.75,4.74,1.68-10.02,1.73-13.72,2.06c-3.7,.33-3.33,.21-1.08-.73h0Z"/>
    <path id="path64-5" class="cls-7" d="M165.24,89.81c-2.25-.94-6.36-2.68-10.06-3.01s-6.99,.75-4.74,1.68,10.02,1.73,13.72,2.06c3.7,.33,3.33,.21,1.08-.73h0Z"/>
    <path id="path67" class="cls-16" d="M133.96,190.45l-.18,13.41"/>
    <path id="path67-1" class="cls-16" d="M146.57,190.43l-.18,13.41"/>
    <path id="path68" class="cls-16" d="M132.9,203.86c-1.69-.57-3.34-1.24-5.05-1.75-1.71-.51-3.49-.85-5.27-.71-1.78,.13-3.56,.77-4.84,2.01-.64,.62-1.15,1.38-1.44,2.22-.29,.84-.36,1.77-.16,2.63,.17,.74,.52,1.43,1,2.01,.48,.58,1.08,1.07,1.74,1.43,1.32,.73,2.86,1,4.37,.99,3.02-.02,5.94-1.1,8.96-1.25,1.1-.06,2.21,0,3.28-.24,.53-.12,1.06-.32,1.51-.63s.83-.74,1.04-1.25c.27-.65,.24-1.41-.02-2.07-.25-.66-.71-1.23-1.26-1.67-1.1-.89-2.5-1.29-3.84-1.73h0Z"/>
    <path id="path68-9" class="cls-16" d="M148.04,203.91c1.69-.57,3.34-1.24,5.05-1.75,1.71-.51,3.49-.85,5.27-.71,1.78,.13,3.56,.77,4.84,2.01,.64,.62,1.15,1.38,1.44,2.22,.29,.84,.36,1.77,.16,2.63-.17,.74-.52,1.43-1,2.01-.48,.58-1.08,1.07-1.74,1.43-1.32,.73-2.86,1-4.37,.99-3.02-.02-5.94-1.1-8.96-1.25-1.1-.06-2.21,0-3.28-.24-.53-.12-1.06-.32-1.51-.63s-.83-.74-1.04-1.25c-.27-.65-.24-1.41,.02-2.07,.25-.66,.71-1.23,1.26-1.67,1.1-.89,2.5-1.29,3.84-1.73h0Z"/>
  </g>
</svg>